<?xml version="1.0" encoding="UTF-8"?>
<svg viewBox="0 0 500 500" xmlns="http://www.w3.org/2000/svg">
<defs>
<clipPath id="a">
<rect transform="translate(.77734)" width="154" height="153" fill="#fff"/>
</clipPath>
</defs>
<rect width="500" height="500" rx="100" ry="100" style=""/>
<path transform="translate(83.102 102.67)" d="m-17.754 98.189c-0.2-5-2.4-34.8-2.8-39.8 14.4-1 28.8-3.4 43.2-4 0.8 15.2 3 30.2 4.4 45.4 0.2 4.4 5.2 8.6 9.6 8.6 5.4 0 10.6-4.8 10.2-10.4-1-15.6-4-31.2-4.4-47-0.6-22.8 1.4-45.8 1.6-68.6 0-2.8-1-5.2-2.8-7.2-2-2-4.6-3-7-3-5.2 0-10 4-10.2 10.2 0 6.4-1.4 45.6-1.6 52-5.4 0.2-36.8 3.4-42.2 4-0.2 0-1.8-1-1.8-1.4-0.2-7.6-0.4-42 1.6-49.6 0.6-2.6-0.6-5.8-2.2-8-1.6-2.6-4.4-3.6-7.2-3.6-2.4 0-4.8 0.6-6.8 2-4.6 3.8-4.8 13-4.8 18.4-1.6 34.6 0.4 69.4 3.4 103.8 0.6 4.6 5.4 8.4 9.8 8.4 5.6 0 10.4-4.6 10-10.2zm201.69 15.8c2.2-1.4 3.4-4.4 4-7 1-3.8 0.2-7.8 0.2-11.8-0.4-18-1.2-36-0.8-54 0.4-12.6 0.8-25.2 3.4-37.4 0.8-3.4 1.6-6.6 3.4-9.6 8.6 7.2 21.2 54 24.4 66.4 1.8 6.6 10.4 40.6 13.4 46.8 2 4.2 5.8 6 9.6 6 4.4 0 8.6-2.4 10.4-7.4 3.4-9.6 7.4-58.8 8.6-69 2.2-16.6 5-33.2 6.2-50 0.2-3.4-2.2-7-4.8-8.8-1.6-1-3.2-1.6-5-1.6-4 0-7.8 2.6-9.6 6.6-0.6 1.6-1 8.6-1.2 10.4-1.6 14.4-3.8 28.6-5.6 43-0.4 2.6-1.8 18.2-2.2 20.8-5.4-20.4-10.6-41.4-19.4-60.8-5.4-11.2-12.2-22.8-26.2-22.8-18.8 0-23 29.4-24 43.2-2.4 26.2-1.2 52.6-0.6 78.8 0 1.2 0.6 6 0.2 7.2-1 2.6-0.6 5.6 0.6 8.2 1.6 3.4 4.8 5 8.2 5 2.4 0 4.8-0.8 6.8-2.2zm122.11-23c-0.4-14.8-1.4-29.6-1.4-44.6 0-16.6 0.6-33.4 1.2-50 4-2.4 9-3.6 13.8-3.6 17.4 0 26 15.4 30.6 30.2 4 12.2 5.4 26 2.8 38.8-4.6 19.8-16.6 31.6-37.4 31.6-3.2 0-6.6-0.6-9.6-2.4zm64.4-17.2c5.2-16.6 4.8-35.2 0.4-51.8-7-25.6-22-49-50.6-49-8.4 0-17 2-24 5.8-1 0.6-2.2 1.2-3.2 1.6-3 1-5.4 3.8-6.2 6.6-0.8 2-1 11.6-1.2 13.8-0.6 17.6-1.2 35.4-1 53.2 0.2 6 1.2 40.6 1.6 46.6 0.4 5 5.2 8 9.8 8.4 0.4 0 0.8-0.2 1 0 5.2 3 11.6 4.6 17.8 4.6 26.2 0 47.8-14.6 55.6-39.8z" fill="#fff" stroke="#000" stroke-linecap="round" stroke-linejoin="round" stroke-miterlimit="30" stroke-width="8px" style="paint-order:fill;white-space:pre"/>
<path transform="translate(83.102 102.67)" d="m53.695 296.39c1.4-1.4 6.2-7.6 6.8-9.6 2.6-7-3-13.8-9.4-13.8-1.6 0-3.4 0.4-5 1.4-3.2 1.8-4.6 5.6-7.2 8.2-5 4.8-13.8 9.8-21 9.8-6.2 0-10.2-2-14.2-6.6-15.6-17.6-9.2-55.4 3-75.4 4-6.6 12.2-16.6 20.8-16.6 2.6 0 5.2 0.8 7.6 2 3.8 2.2 6.6 6.2 11 7 10.4 2 15.6-11.4 7.6-18.4-7.4-6.8-15.8-11.2-26-11.2-18.2 0-31.4 14.6-39.6 29.2-10.8 19.2-15.6 43-12.8 64.8 3.2 23.8 16.8 45.8 42.8 45.8 13.6 0 26.4-7 35.6-16.6zm55.687-3.8c-9.2-6.8-14-20.2-15.8-31-2.6-15.8-0.6-32.4 5.6-47.4 4.4-10.2 13-20.2 22.2-20.2 14.6 0 22 22.2 24 33.8 2.6 15.6 0.6 32.4-5.6 47.2-3.4 8.2-11.8 20.4-22 20.4-3.2 0-5.8-1.2-8.4-2.8zm53.4-23.2c5.4-19.8 4.8-42.4-2.2-61.8-6.2-17.4-19.8-33.6-39.6-33.6-24.4 0-39.2 25-44.8 45.8-5.4 19.8-4.8 42.4 2.2 61.8 6.2 17.2 20 33.8 39.8 33.8 23.6 0 39.4-25.4 44.6-46zm42.907 21.6c-0.4-14.8-1.4-29.6-1.4-44.6 0-16.6 0.6-33.4 1.2-50 4-2.4 9-3.6 13.8-3.6 17.4 0 26 15.4 30.6 30.2 4 12.2 5.4 26 2.8 38.8-4.6 19.8-16.6 31.6-37.4 31.6-3.2 0-6.6-0.6-9.6-2.4zm64.4-17.2c5.2-16.6 4.8-35.2 0.4-51.8-7-25.6-22-49-50.6-49-8.4 0-17 2-24 5.8-1 0.6-2.2 1.2-3.2 1.6-3 1-5.4 3.8-6.2 6.6-0.8 2-1 11.6-1.2 13.8-0.6 17.6-1.2 35.4-1 53.2 0.2 6 1.2 40.6 1.6 46.6 0.4 5 5.2 8 9.8 8.4 0.4 0 0.8-0.2 1 0 5.2 3 11.6 4.6 17.8 4.6 26.2 0 47.8-14.6 55.6-39.8zm80.693 36.6c5.4-1.4 7.8-7.4 6.4-12.6-1.2-4.4-5.2-6.6-9.6-6.6-1 0-2.2 0.2-3.2 0.4-6.4 1.6-12.8 2.8-19.2 2.8-3.6 0-8.2-0.4-10.4-3.6-3.8-5.4-4.4-26.2-4.4-32.8 5.2 0.2 22.4 1 26.8-1.6 8.2-4.6 6-17-3.2-18.6-0.4 0-1-0.2-1.4-0.2-2 0-4.2 0.6-6.2 0.8-4.6 0.2-9.4-0.2-14-0.4-0.4 0-1.8-0.8-1.8-1 0.6-14.6 1.8-29 3.8-43.2 5.2-0.2 27.4 0 32.4-1.8 9.6-3.6 8.4-17.6-1.8-19.2-1.4-0.4-3-0.2-4.6 0-4.6 0.8-31.2 1-35.8 1.4-4.8 0.4-8.4 5-8.4 9.8 0 0.4-0.4 0.8-0.6 1.2-0.6 2.8-1 5.8-1.4 8.8-2.2 16.6-3.4 33.6-3.8 50.6-0.2 11.8 0 23.6 1.2 35.2 2.2 22 11.6 34.8 34.2 34.8 8.4 0 17-1.8 25-4.2z" fill="#fff" stroke="#000" stroke-linecap="round" stroke-linejoin="round" stroke-miterlimit="30" stroke-width="8px" style="paint-order:fill;white-space:pre"/>
<g transform="matrix(0.57406, -0.57406, 0.57798, 0.57798, 112.91, 81.849) translate(-77.78, 58.5)" clip-path="url(#a)">
<path d="m153.7 1.1912c-2.256-1.6255-4.679-1.1717-6.813-0.77465-0.475 0.089088-0.948 0.17815-1.416 0.24335-19.855 2.7496-39.401 7.3697-58.376 13.798-11.693 3.9929-23.172 7.7926-34.114 11.294-4.1587 1.3299-6.8398 3.7605-8.4441 7.6481-4.9384 11.961-7.8962 22.299-9.3179 32.531-0.0923 0.6643-0.1664 1.3331-0.2411 2.011-0.1569 1.8902-0.4831 3.763-0.9747 5.5958-0.4549-0.439-0.8993-0.8645-1.3281-1.2789-1.3919-1.3441-2.7065-2.6126-4.0568-3.8005-2.6095-2.2943-4.4041-2.4531-7.3866-0.6455-1.011 0.5739-1.9517 1.262-2.8031 2.0509-5.2419 5.1543-10.476 10.36-15.556 15.474-0.84965 0.7417-1.4744 1.7043-1.8037 2.7798-0.32932 1.0749-0.35024 2.2201-0.0606 3.3066 0.02263 0.1098 0.07301 0.2111 0.14627 0.2963 1.1293 1.3176 2.2781 2.7043 3.4561 4.1246 2.7291 3.2924 5.5472 6.6903 8.65 9.8993 9.6818 10.019 20.381 20.832 33.663 34.03 3.1294 3.11 6.4692 6.104 9.6993 8.998 1.4886 1.335 2.9773 2.67 4.4517 4.02 0.1239 0.113 0.2865 0.176 0.4549 0.175h4.0038c0.1321 0 0.2613-0.038 0.3711-0.111s0.1956-0.177 0.2462-0.298c0.0585-0.142 0.1066-0.297 0.1534-0.452 0.0357-0.15 0.0903-0.294 0.1631-0.43 2.7057-2.362 5.4179-4.718 8.1366-7.066 3.3094-2.866 6.6143-5.739 9.9139-8.619 1.7772-1.557 3.6271-3.55 3.8695-6.524 0.0039-0.048 0.0026-0.097-0.0039-0.145-0.3711-2.647-2.1352-4.27-3.8416-5.841-1.2866-1.186-2.5088-2.312-3.1716-3.845l0.3184-0.162c0.5003-0.268 1.0169-0.506 1.5472-0.71 3.2093-1.144 6.4231-2.278 9.6415-3.401 6.9287-2.43 14.093-4.943 21.076-7.592 4.094-1.553 7.986-3.761 11.748-5.895l0.2-0.113c3.034-1.721 4.939-4.573 5.665-8.4741 0.585-3.1472 1.333-6.3808 2.225-9.61 8.102-29.323 14.336-51.754 20.213-72.729 1.052-3.7495 1.029-6.6687-0.071-9.464-0.048-0.11859-0.13-0.22102-0.234-0.29504zm-63.485 74.854c-1.7538 0.541-3.6511 0.388-5.2938-0.428-1.6433-0.816-2.9052-2.2318-3.5219-3.9503-1.5036-3.792-0.0552-7.2717 3.6896-8.8649 1.9487-0.8203 4.0196-1.3193 6.1301-1.4771 0.2625-0.0194 0.5165-0.029 0.7622-0.029 1.3229-0.0829 2.6277 0.3429 3.6433 1.1891 1.002 0.9264 1.5056 2.3925 1.4984 4.3576-0.0149 3.9812-3.1137 8.1077-6.9085 9.2052l6e-4 -0.0026zm42.598-59.131c-2.122 2.0542-4.127 3.9941-6.051 6.0851-2.015 2.195-4.127 4.3725-6.17 6.4803-2.809 2.9012-5.718 5.9012-8.427 8.989-3.236 3.6843-6.229 7.4524-9.398 11.442-1.291 1.6243-2.593 3.2641-3.9243 4.9129l-0.6843-0.2048c-0.8291-0.2486-1.6894-0.5068-2.5471-0.7315-4.7032-1.1731-9.6637-0.7844-14.124 1.1066-7.0996 2.816-10.828 9.1516-9.7287 16.535 0.3873 2.8308 1.4575 5.5267 3.1197 7.8572 1.6621 2.3312 3.8675 4.2285 6.427 5.53 2.4185 1.1872 5.0931 1.7669 7.7891 1.6881 2.6966-0.0787 5.3321-0.8134 7.6759-2.14 3.6975-1.907 6.7025-4.916 8.5915-8.6055 2.945-5.8411 2.713-10.968-0.711-15.674-0.098-0.1349-0.202-0.2653-0.307-0.3957-0.346-0.3831-0.603-0.8375-0.751-1.3306-0.033-0.091-0.065-0.1807-0.102-0.2704 0-0.0381 0-0.0769-5e-3 -0.115-8e-3 -0.0809-8e-3 -0.1623 0-0.2433 0.023-0.1006 0.07-0.1944 0.137-0.2738 13.038-12.916 26.083-25.827 39.637-39.242-0.097 0.7007-0.243 1.394-0.436 2.0749-1.811 5.885-3.631 11.768-5.458 17.648-2.963 9.5505-6.026 19.427-8.981 29.159-1.709 5.6294-3.338 11.661-4.841 17.928-0.415 1.9626-1.283 3.8018-2.536 5.3738-1.253 1.5719-2.857 2.8327-4.685 3.6829-3.352 1.6611-6.487 3.1633-9.581 4.5875-2.99 1.3775-6.108 2.6405-9.1209 3.8635-7.5376 3.056-15.326 6.214-22.04 11.491l-34.931-34.542c0.0416-0.4667 0.0651-0.9089 0.0892-1.3305 0.0011-0.8489 0.1175-1.694 0.3461-2.5119 3.761-10.807 7.6404-21.794 11.392-32.419l3.0028-8.506c5.3068-1.8295 10.671-3.7313 15.861-5.5712 22.2-7.8721 45.135-16.005 69.482-20.547-2.656 3.0367-5.373 5.6654-8.012 8.2186l1e-3 7e-4zm-55.398 111.97-14.346 13.725c-9.0321-7.037-47.774-44.749-53.222-51.808 3.3549-5.0187 10.159-12.496 14.272-15.687l0.106 0.0646c0.3369 0.1892 0.6515 0.4151 0.9381 0.6733 15.282 15.111 30.553 30.231 45.815 45.36l0.7941 0.781c2.0786 2.04 4.2249 4.146 5.6421 6.891h6e-4z" fill="#fff" stroke-width="0px"/>
</g>
</svg>
